<?xml version="1.0" encoding="utf-8"?>
<!-- Generator: Adobe Illustrator 21.0.1, SVG Export Plug-In . SVG Version: 6.00 Build 0)  -->
<svg version="1.1" id="圖層_1" xmlns="http://www.w3.org/2000/svg" xmlns:xlink="http://www.w3.org/1999/xlink" x="0px" y="0px"
	 viewBox="0 0 1024 1024" style="enable-background:new 0 0 1024 1024;" xml:space="preserve">
<style type="text/css">
	.st0{fill:url(#SVGID_1_);}
	.st1{fill:#747D91;}
	.st2{opacity:0.76;}
</style>
<linearGradient id="SVGID_1_" gradientUnits="userSpaceOnUse" x1="512.0002" y1="0" x2="512.0002" y2="1024">
	<stop  offset="0" style="stop-color:#F7F7F7"/>
	<stop  offset="1" style="stop-color:#E3E3E3"/>
</linearGradient>
<path class="st0" d="M1024,704c0,128,0,192-64,256c-64,64-128,64-256,64H320c-128,0-192,0-256-64C0,896,0,832,0,704l0-384
	C0,192,0,128,64,64C128,0,192,0,320,0h384c128,0,192,0,256,64c64,64,64,128,64,256V704z"/>
<g>
	<path class="st1" d="M825.1,495.3c-1.3-2.1-3.7-3.4-6.1-3.4c-2.8,0-4.7,1.4-5.8,4l-0.1,0.2c-1.6,5.4-5.8,11.2-12.8,17.9
		c-9.1,8.7-18.7,17.4-29.1,26.6c5-20,9.4-40.5,13.1-61.1l1.4-8l0-3.1c0.2-2.2-0.5-4.4-1.9-6c-1.2-1.4-3-2.2-4.8-2.2h-0.3l-1.6,0.4
		c-2.6,0.5-4.7,2.3-6.3,5.5h-0.4l-1.2,2.8c-1.8,2-5.6,7.2-13.4,18.3l-9.7,13.5l-10.7,15.2l-5.2,7c-4.6,6.4-9.3,12.5-14.8,19.3
		l-8.9,11L698,562l-2.5,1.4c-0.3,0.1-0.5,0.2-0.8,0.3c-3.5-1-5.3-3.3-5.6-7.2c-0.7-6.1,0.5-13.8,3.4-22.9
		c3.9-13.2,11.4-30.6,18.5-42.4l0.1-0.3c1-2.3,0.8-4.8-0.5-6.8c-1.2-1.8-3.2-2.9-5.3-2.9c-3.2,0-4.9,2.3-5.5,3.1l-0.1,0.2
		c-3,4.9-6.4,11.7-10.5,20.7c-0.8,1.7-1.6,3.6-2.5,5.6c-5.6,9.7-11.1,18.4-17.5,27.2c-19.2,27.2-33.4,36.6-37.3,34.6l-0.2-0.1
		c-1.1-0.5-2.3-1.6-3.4-6.3c-1.3-5-2-10.9-2-17.7c0-2.2,0.3-8,0.9-17.7c0.8-0.4,1.4-0.9,1.9-1.4l0.1-0.1
		c56.1-64.1,86.5-116.5,90.3-155.8c0.8-7.5-1.2-14.2-5.5-18.9c-3.4-3.8-8.2-6-13-6c-8.9,0-18,6.4-28,19.7
		c-28.9,38.4-51.7,100.1-57.8,152.9c-5,7.7-12.4,14.9-22.2,21.6l-0.1,0.1c-22.9,17.5-49.1,23.9-62.2,21.1
		c-8.4-2.8-10.4-7.6-7.9-19.1c0.9-4.2,2.3-8.5,4.2-12.8h0.2c12.6,0,35.1-6.4,51.8-14.9c19.1-8.8,29.5-18.3,31.9-29
		c1.1-4.8-0.4-10.5-4.1-15.6c-3.7-5.1-8.9-8.7-14.4-9.9c-8.9-2-18.5,0.4-29.3,7.3c-23.5,14.1-47.2,46.1-52.8,71.4
		c-1.9,8.4-1.7,15.9,0.5,21.6c2.7,7,8.4,11.7,16.6,13.5c8.4,1.9,19.7,0.8,33.5-3.2c19-5.4,38.6-17.3,52.8-31c0,1.7-0.1,3.4-0.1,5.1
		c0,25.6,6.4,38.5,19.1,38.5c6.6,0,13.9-3.9,23.2-12.5c6-5.7,12.8-13.8,19.4-22.6c0,0.8-0.1,1.6-0.1,2.4c0,15.3,6.7,20.3,10.7,21.9
		c7.8,3.1,18.3-0.8,27.2-10.1c6.7-7,14.9-17.2,27.5-34.2l0.2-0.3l0.1-0.3c0.1-0.2,0.7-1.5,4.8-6.6c3.1-4.1,7.9-10.2,13.2-18.1
		l0.1-0.1c1.3-2.1,2.6-3.9,3.7-5.3l3.5-5.3l2.4-3.3c-0.9,4.2-1.8,8.3-2.7,12.1c-4.2,20.9-8.4,38.2-12.6,52.8l-8.4,7.1
		c-14.8,12.5-24.3,21.5-29.5,26.8c-29.3,27.8-42.3,46.8-42.3,61.7c0,7.1,3.1,13.8,8.6,18.8c4.8,4.3,11.1,6.9,16.7,6.9
		c10.2,0,19.9-7.2,29.4-21.9c10.1-15.3,20.4-39.3,30.4-71.2c1.5-4.6,3.1-9.7,4.7-15.1c0.6-1.9,1.1-3.8,1.7-5.7l12.3-10.6
		c25.6-22.2,42.6-38.7,48.1-52.1C826.3,499.1,826.2,497,825.1,495.3z M683.5,376c5.4-6.8,10.2-11.4,14.8-14.2
		c0.4-0.2,1.1-0.4,2.3-0.4c1.2,0,2.3,0.5,3.3,1.6c1.9,2,3,5.6,2.8,9.2c-2.9,34.3-28.6,80.1-76.5,136.1
		C638.2,460.7,658.7,409.7,683.5,376z M570.2,480.8c6.4-3.8,11.6-5.6,16.3-5.6c0.1,0,0.3,0,0.4,0h0.1l0.2,0c0.7-0.1,1.4,0.1,3,0.4
		c4.7,1,9.2,4.7,7.9,10.2c-0.4,1.7-1.4,3.5-3,5.2c-4.1,4.8-11.4,9.7-21.3,14.3c-13.6,6.7-26.6,11.1-38.8,12.9
		C546.1,501.2,557.9,488.6,570.2,480.8z M698.5,664.3c-4.8,0-11.7-4.4-11.7-12.4c0-3.8,1.3-8.3,3.8-13c9.1-16.3,27.7-34.6,56.4-59.9
		c0,0.1,0,0.2-0.1,0.2l-0.4,1.7c-9.6,30-19.4,52.7-29.1,67.5C710.5,659,704.1,664.3,698.5,664.3z"/>
	<path class="st1" d="M574,453.7c-1.1,1.5-2.8,2.3-4.7,2.3c-3.3,0-6.3-3.3-6.3-7c0-1.8,0.6-3.4,1.8-4.5c0.5-0.5,1-1,1.4-1.4
		c-7.2,1.9-17.4,7.1-23.6,12c-15.8,13.8-32.6,37.6-49.9,70.9l-15.4,32.9l-0.5,0.5l-0.2,1l-0.6,1.1l-0.8,1.4l-0.4,1.4l-0.2,0.4
		c-0.3,0.5-1.3,2.7-2.4,7.2l0,0.1l-3.2,10.2c-0.9,2.3-2.5,3.7-4.8,4.3l-0.3,0.1h-0.3c-0.4,0.2-0.8,0.3-1.2,0.3
		c-0.6,0-1.1-0.1-1.6-0.4c-2.4-0.7-4-2.4-4.5-4.9l-0.1-0.5c0-1,0-1.9,0.6-2.9c2.6-9.7,3.9-22.3,3.9-37.3c0-24.8-4.3-48.1-11.1-59.3
		l-0.1-0.2l-0.1-0.3c-0.1-0.4-0.2-0.7-0.3-0.9c-0.2-0.7-0.5-1.2-0.5-1.9c0-3.8,2.9-6.7,6.7-6.7c3.4,0,5.1,2.7,5.6,3.6
		c7.4,11.6,11.4,30.2,12.1,56.8c0.2,1.3,0.3,2.8,0.3,4.9c1.2-2.6,2.2-4.6,2.8-6.2l0.1-0.2l5.2-10.4c17.5-33.9,34.8-58.2,52.8-74.1
		c7.6-7.6,22.8-14.4,32.3-16.2c1.4-0.4,3-0.4,5.1-0.4c5.7,0,9.3,2.1,10.7,6.1C583.7,439.8,581.2,445.7,574,453.7z"/>
	<path class="st1" d="M445.6,511.6l-6.2,11.6c-1.4,2.5-2.8,5.2-4.1,7.9l-0.1,0.2c-1,1.6-1.8,3.1-2.5,4.3c-0.5,0.8-0.9,1.6-1.3,2.3
		l-0.1,0.1c-15.4,22.2-28,35.3-38.7,39.9c-3.7,2.2-7.6,3.4-11.2,3.4c-12.2,0-19.1-10.9-19.1-29.9c0-15.6,4.7-37.6,14.3-67.3l0.1-0.2
		c1.1-2.6,3-4,5.8-4c2.3,0,4.6,1.2,5.8,3.2c1.1,1.8,1.2,3.9,0.3,5.9c-8.5,20.5-13.6,42.4-13.6,58.5c0,6.5,0.9,11.8,2.6,16.3
		c1.2,2.7,2.8,4,4.6,4c1.2,0,2.7-0.6,4.9-1.5c8.2-4,19.5-16,33.6-35.9l0.3-0.3c0.8-0.8,1.8-2.5,2.7-4c0.3-0.5,0.6-1,0.9-1.5
		c0.8-1.4,1.7-3,2.9-4.7l0.3-0.5c2.4-4.6,4.8-8.6,7.1-12l0.1-0.2c1.7-2.2,4.2-3.4,6.8-3.4c3,0,4.2,1.5,4.7,2.4
		C446.9,507.4,447.2,509.2,445.6,511.6z"/>
	<path class="st1" d="M400.6,451.8c0,9-4.9,15-12.2,15c-2.6,0-5.1-0.9-7.6-2.5c-4.6-3-6.5-7.5-5.2-12.4l0.1-0.5l0.9-1.2
		c0.7-1,1.4-1.9,2.3-2.8c2.9-4,6.7-6.1,11.3-6.1c3.3,0,5.5,1.1,7.2,2.1l0.6,0.3l0.3,0.6C399.8,447.1,400.6,449.6,400.6,451.8z"/>
	<path class="st1" d="M443,572.8c-0.4-2.1-1-4.5-1.9-7.5c-0.1-0.4-0.3-0.8-0.4-1.2c-1.7-4.4-5.7-7.5-9.6-7.5c-4.6,0-8.4,4.7-8.4,7.7
		c0,3.7,2.7,6.5,6.3,6.7c0.1,0.2,0.2,0.5,0.4,1.1c0.1,0.3,0.2,0.6,0.3,0.8c0.1,0.3,0.2,0.7,0.3,0.8l0.4,2.3v0.7c0,0.1,0,0.1,0,0.2
		l0,0.2c-3.8,29.5-19.7,48.1-44.6,52.3l-0.1,0c-4.2,0.9-9.2,1.3-15.8,1.3c-13.9,0-29.1-2.8-52.6-9.6c-13.5-3.9-23.6-6.3-30.8-7.3
		l-8-1l-2.5-0.3c-0.8-0.4-1.6-0.4-2.4-0.4c-8.5-1.5-15.4-2.2-20.6-2.2l3.6-7.1c4-8.3,8.2-24.4,12.7-48c0.1-0.3,0.1-0.6,0.2-0.9
		c0.4-1.4,0.9-3.2,1.1-5.5c0.1-0.5,0.2-1,0.2-1.6c0.3-1.9,0.6-4.3,1.2-6.8c0.5-0.2,0.9-0.5,1.2-0.9c35.7-20.4,61.9-42.7,80.4-68.2
		c10.9-15.2,20.9-50.8,20.9-74.9c0-16.2-4.3-28.8-12.5-36.4c-6.8-6.3-16-9.1-27.2-8.4c-32.7,2.2-49.6,54.5-64.9,132.3
		c-1.1,2.8-3.1,13.1-5.1,23.4l-0.2,0.9c0,0.1-1.7,8-4.4,23.6c-1.4,1-2.6,1.6-3.7,1.9c-2,0.4-4,1.2-6,2.4c-0.8,0.5-1.4,0.9-1.9,1.3
		c-0.5,0.4-1.1,0.8-1.3,0.9l-0.3,0.1c-20.5,10.1-37.1,17.3-49.2,21.3c-3,1-4.8,3.3-4.8,6.2c0,3,2.7,6.3,6.7,6.3h1.5l0.4-0.1
		c14.3-4.8,30.5-11.8,50.9-22l5.2-2.6l-1.2,5.1c-4.2,21.4-8.3,37.4-11.6,45.2l-2.3,5.4c-0.3,0.5-0.7,1-1,1.5c-0.6,1-1.3,1.9-1.8,2.9
		c-0.2,0.4-0.5,0.8-0.7,1.2c-0.6,1.1-1.1,1.9-1.7,2.5l-1.8,2.6l-7.3,2.6l-0.4,0.2c-0.2,0.1-5.7,3.5-5.7,7.3c0,4.6,5.7,7.7,9.4,7.7
		c3,0,5.7-1.2,8.3-3.8l3.4-3.1c0.3-0.1,0.7-0.2,1-0.4c0.4-0.2,0.8-0.3,1.2-0.5l2.4-0.6h3.6l0.6-0.6c8.6,0.6,15.3,1.3,20,2.3l0.3,0.1
		h0.7l0.3,0.2l4.2,0.4l7.1,1l29.6,7.2c23.3,6.6,41.4,9.8,55.4,9.8c4.8,0,10.7-0.6,18.7-1.8l0.1,0c30.9-6,51-29.4,55.3-64.1
		C443.4,576.5,443.4,574.9,443,572.8z M274.9,523.3l5.5-28.5l1.7-8.6c8.5-41.7,15.1-66.4,22.7-85.4c11.4-28.2,28.7-38.7,39.9-36.5
		c10.1,2,16.2,13.7,16.2,31.4c0,22.5-9.8,55.9-17.9,67.5C327.7,485.1,304.8,505.4,274.9,523.3z"/>
</g>
<g class="st2">
	<g>
		<g>
			<defs>
				<path id="SVGID_2_" d="M511.8,93.1l-0.3,0l-0.8,0c-8.3-0.2-14.8-7.1-14.6-15.4s7.1-14.8,15.4-14.6l0.3,0L511.8,93.1z"/>
			</defs>
			<clipPath id="SVGID_3_">
				<use xlink:href="#SVGID_2_"  style="overflow:visible;"/>
			</clipPath>
			<g style="clip-path:url(#SVGID_3_);">
				
					<image style="overflow:visible;" width="61" height="31.5" xlink:href="87D7EC8430DC806C.png"  transform="matrix(1 0 0 1 451.5002 61.6397)"/>
			</g>
		</g>
		
			<image style="overflow:visible;" width="896" height="896" xlink:href="87D7EC8430DC806B.png"  transform="matrix(1 0 0 1 63.5005 63.109)"/>
		<g>
			<defs>
				<path id="SVGID_4_" d="M511.2,63.1l0.3,0c8.3-0.2,15.2,6.3,15.4,14.6s-6.3,15.2-14.6,15.4l-0.7,0l-0.3,0L511.2,63.1z"/>
			</defs>
			<clipPath id="SVGID_5_">
				<use xlink:href="#SVGID_4_"  style="overflow:visible;"/>
			</clipPath>
			<g style="clip-path:url(#SVGID_5_);">
				
					<image style="overflow:visible;" width="61" height="31.5" xlink:href="87D7EC8430DC8074.png"  transform="matrix(1 0 0 1 510.4871 61.6397)"/>
			</g>
		</g>
	</g>
</g>
</svg>
